# xmcd
#
# Track frame offsets:
#	150
#	14560
#	30263
#	43025
#	56938
#	71613
#	86933
#	104910
#	123573
#	146800
#	172645
#	195943
#	214455
#	226715
#	246630
#	270410
#	293103
#	315733
#	335133
#
# Disc length: 4676
#
# Revision: 1
# Processed by: cddbd v1.5.1PL0 Copyright (c) Steve Scherf et al.
# Submitted via: CDex 1.51
# Normalized: r0:DSETVAR1
#
DISCID=27124213
DTITLE=Various Artist - TRANCE RAVE BEST #4
DYEAR=1900
DGENRE=Trance
TTITLE0=I CAN'T STOP LOVING YOU（Roger P - Shah - Oli Bohm） - KINGSIZE LOVER
TTITLE1=WILL I（Erick Vanspauwen - Christophe Chantzis） - B&B PROJECT
TTITLE2=MISSING YOU〔SUNWATER RADIO MIX〕（J.Waite - C.Sandford - M.Leonard） - KAYANA
TTITLE3=FLOATING AWAY（Jan Loechel - Marius） - SANTORO
TTITLE4=FLY AWAY〔ALEX BARTLETT EURORADIOMIX〕（F.Carrara - R.Battini） - GATEONE
TTITLE5=EVERYBODY'S A ROCKSTAR〔DURANGO 95 REMIX〕（Newman - Ridderhof - Garnefski） - TALL PAUL
TTITLE6=CREAM〔PAUL VAN DYK MIX〕（Piet Blank - Jaspa Jones - Andy Kaufhold） - PIET BLANK and JASPA JONES
TTITLE7=FEELS LIKE FLYIN'〔FRIDGE REMIX〕（L：Nicole Henry - M：Andre Tanneberger - Woody van Eyden） - WOODY VAN EYDEN
TTITLE8=THE SUN（GOES DOWN）〔SUNRISE VOCALMIX〕（L：CJ Stone - Henning Reith - Cal Taurus - Felicia Uwaje - M：CJ Stone - Henning Reith） - CJ STONE
TTITLE9=CHINA IN YOUR HANDS〔CLUB MIX〕（Achim Jannsen - Michael Simon - D.J.Magic Finger） - VELVET
TTITLE10=DID I DREAM（SONG TO THE SIREN）〔MINIMALISTIX CLUB MIX〕（Tim Buckley - Larry Beckett） - LOST WITNESS
TTITLE11=G-LICIOUS〔HEAVEN'S CRY REMIX〕（L.T.R.van Schooneveld） - G-SPOTT
TTITLE12=CASTLES IN THE SKY〔WIPPENBERG REMIX〕（Eijk Vanspauwen - Christophe Chantzis - Martine Theeuwen） - IAN VAN DAHL FEAT. MARSHA
TTITLE13=NIGHTWATCHERS（Rollo - Sister Bliss - Maxi Jazz） - INSOMNIA
TTITLE14=TRY IT（H.Bertolli - R.Bianchi - R.Santorini） - STATION ALPHA
TTITLE15=BASS GENERATOR（Robert Ferguson） - FERGIE
TTITLE16=FIELDS OF LOVE〔PUBLIC DOMAIN REMIX〕（Andre Tanneberger - Torsten Stenzel） - ATB FEAT. YORK
TTITLE17=EVERYBODY〔JUNK-FOOD JUNKIES REMIX〕（Sven-R-G - Sebasu-tian） - ROCCO
TTITLE18=ONLY YOU〔CLUB MIX〕（Vince Clarke） - JAN WAYNE
EXTD=
EXTT0=
EXTT1=
EXTT2=
EXTT3=
EXTT4=
EXTT5=
EXTT6=
EXTT7=
EXTT8=
EXTT9=
EXTT10=
EXTT11=
EXTT12=
EXTT13=
EXTT14=
EXTT15=
EXTT16=
EXTT17=
EXTT18=
PLAYORDER=
